HIERARCHY
ROOT Hips
{
	OFFSET -0.001795 -0.223333 0.028219
	CHANNELS 6 Xposition Yposition Zposition Zrotation Yrotation Xrotation 
	JOINT LeftUpLeg
	{
		OFFSET 0.069520 -0.091406 -0.006815
		CHANNELS 3 Zrotation Yrotation Xrotation
		JOINT LeftLeg
		{
			OFFSET 0.034277 -0.375199 -0.004496
			CHANNELS 3 Zrotation Yrotation Xrotation
			JOINT LeftFoot
			{
				OFFSET -0.013596 -0.397961 -0.043693
				CHANNELS 3 Zrotation Yrotation Xrotation
				JOINT LeftToe
				{
					OFFSET 0.026358 -0.055791 0.119288
					CHANNELS 3 Zrotation Yrotation Xrotation
					End Site
					{
						OFFSET 0.000000 0.000000 0.000000
					}
				}
			}
		}
	}
	JOINT RightUpLeg
	{
		OFFSET -0.067670 -0.090522 -0.004320
		CHANNELS 3 Zrotation Yrotation Xrotation
		JOINT RightLeg
		{
			OFFSET -0.038290 -0.382569 -0.008850
			CHANNELS 3 Zrotation Yrotation Xrotation
			JOINT RightFoot
			{
				OFFSET 0.015774 -0.398415 -0.042312
				CHANNELS 3 Zrotation Yrotation Xrotation
				JOINT RightToe
				{
					OFFSET -0.025372 -0.048144 0.123348
					CHANNELS 3 Zrotation Yrotation Xrotation
					End Site
					{
						OFFSET 0.000000 0.000000 0.000000
					}
				}
			}
		}
	}
	JOINT Spine
	{
		OFFSET -0.002533 0.108963 -0.026696
		CHANNELS 3 Zrotation Yrotation Xrotation
		JOINT Spine1
		{
			OFFSET 0.005487 0.135180 0.001092
			CHANNELS 3 Zrotation Yrotation Xrotation
			JOINT Spine2
			{
				OFFSET 0.001457 0.052922 0.025425
				CHANNELS 3 Zrotation Yrotation Xrotation
				JOINT Neck
				{
					OFFSET -0.002778 0.213870 -0.042857
					CHANNELS 3 Zrotation Yrotation Xrotation
					JOINT Head
					{
						OFFSET 0.005152 0.064970 0.051349
						CHANNELS 3 Zrotation Yrotation Xrotation
						End Site
						{
							OFFSET 0.000000 0.000000 0.000000
						}
					}
				}
				JOINT LeftShoulder
				{
					OFFSET 0.078845 0.121749 -0.034090
					CHANNELS 3 Zrotation Yrotation Xrotation
					JOINT LeftArm
					{
						OFFSET 0.090977 0.030469 -0.008868
						CHANNELS 3 Zrotation Yrotation Xrotation
						JOINT LeftForeArm
						{
							OFFSET 0.259612 -0.012772 -0.027456
							CHANNELS 3 Zrotation Yrotation Xrotation
							JOINT LeftHand
							{
								OFFSET 0.249234 0.008986 -0.001171
								CHANNELS 3 Zrotation Yrotation Xrotation
								End Site
								{
									OFFSET 0.000000 0.000000 0.000000
								}
							}
						}
					}
				}
				JOINT RightShoulder
				{
					OFFSET -0.081759 0.118833 -0.038615
					CHANNELS 3 Zrotation Yrotation Xrotation
					JOINT RightArm
					{
						OFFSET -0.096012 0.032551 -0.009143
						CHANNELS 3 Zrotation Yrotation Xrotation
						JOINT RightForeArm
						{
							OFFSET -0.253742 -0.013329 -0.021401
							CHANNELS 3 Zrotation Yrotation Xrotation
							JOINT RightHand
							{
								OFFSET -0.255298 0.007772 -0.005559
								CHANNELS 3 Zrotation Yrotation Xrotation
								End Site
								{
									OFFSET 0.000000 0.000000 0.000000
								}
							}
						}
					}
				}
			}
		}
	}
}
MOTION
Frames: 12
Frame Time: 0.050000
0.000000 0.936662 0.000000 -0.279478 0.906207 2.349965 2.118570 0.076556 1.647534 -0.844169 0.228552 -5.240686 -0.572274 1.059147 4.868122 0.000000 0.000000 0.000000 2.418832 -0.244644 1.446598 2.414971 -0.290781 -1.770930 0.613516 -0.507401 4.111355 0.000000 0.000000 0.000000 3.197032 0.187100 -3.525179 -0.961020 0.362438 4.489653 -3.663062 1.785923 3.029549 5.692826 -2.358410 -13.307521 0.000000 0.000000 0.000000 -29.870168 -9.237571 1.698498 -22.664697 5.483749 -3.074027 4.975965 -22.424056 -0.207322 0.000000 0.000000 0.000000 21.735167 5.094524 1.722899 25.380954 -7.513076 -3.751087 10.126321 44.493032 5.726853 0.000000 0.000000 0.000000 
-0.000655 0.935562 0.000082 -0.304701 1.222163 2.739293 2.649711 0.077889 2.015335 -1.619411 0.301617 -6.724367 -0.816166 0.721596 5.127444 0.000000 0.000000 0.000000 2.321716 -0.187393 0.996364 2.812195 -0.327283 -1.688697 0.428366 -0.771420 3.789931 0.000000 0.000000 0.000000 4.204766 0.250585 -4.274830 -1.587568 0.671894 5.212205 -4.551109 2.396917 2.796194 7.122467 -2.835331 -15.354330 0.000000 0.000000 0.000000 -28.825352 -10.462920 2.129793 -24.370634 5.237177 -3.197493 7.246416 -22.609455 -0.688995 0.000000 0.000000 0.000000 22.601277 3.652559 1.173430 24.311329 -9.109713 -3.880450 14.845315 46.229662 8.068348 0.000000 0.000000 0.000000 
-0.001118 0.935105 0.000304 -0.143121 1.922968 2.923685 3.035045 -0.002790 1.079606 -2.448894 0.321906 -5.544131 -1.023924 0.186470 4.733985 0.000000 0.000000 0.000000 2.561478 -0.201967 1.049586 2.288517 -0.289172 -2.066520 0.103981 -1.417262 3.615510 0.000000 0.000000 0.000000 5.178412 0.254161 -4.192437 -1.888506 0.844496 3.425755 -4.909635 1.576433 4.263733 7.049666 -2.895577 -15.215095 0.000000 0.000000 0.000000 -28.420206 -10.476401 2.420082 -24.952729 5.558680 -3.448708 5.585766 -23.993452 -0.374567 0.000000 0.000000 0.000000 22.170448 4.529373 1.604432 25.036068 -10.222531 -4.211911 14.093293 47.580174 7.965327 0.000000 0.000000 0.000000 
-0.001936 0.934769 0.000789 0.061617 2.187468 2.909420 3.257190 -0.025541 0.854144 -3.100309 0.353411 -5.105263 -1.135914 -0.058304 4.641454 0.000000 0.000000 0.000000 2.843677 -0.229607 1.190536 1.544116 -0.225497 -2.198551 -0.081762 -1.726735 3.346747 0.000000 0.000000 0.000000 5.390006 0.261656 -4.251989 -2.012364 0.899265 3.751299 -5.009452 1.814370 3.776805 7.587388 -3.167096 -15.272397 0.000000 0.000000 0.000000 -29.737575 -10.548601 2.216419 -23.815105 6.110862 -3.296441 5.985635 -24.797746 -0.480302 0.000000 0.000000 0.000000 22.236093 4.295998 1.571445 23.086725 -11.985967 -4.079789 14.996046 48.345883 8.522097 0.000000 0.000000 0.000000 
-0.003094 0.935108 0.001849 0.428098 1.853291 2.826141 2.752451 -0.006447 0.854182 -2.828604 0.337423 -4.726688 -1.010400 0.202797 4.723150 0.000000 0.000000 0.000000 2.855262 -0.259495 1.418511 0.860684 -0.167390 -2.323494 -0.000055 -1.508239 3.248362 0.000000 0.000000 0.000000 5.717207 0.269493 -4.237843 -1.864410 0.825435 3.976804 -5.877432 2.347108 2.999211 8.464273 -3.865417 -14.022945 0.000000 0.000000 0.000000 -29.276217 -11.065640 2.284378 -23.634420 6.936626 -3.317680 4.882748 -27.192397 -0.291309 0.000000 0.000000 0.000000 21.803089 3.622230 1.324960 22.748019 -12.007271 -4.007774 17.341215 48.296378 9.629409 0.000000 0.000000 0.000000 
-0.004571 0.934695 0.003737 0.577042 1.526584 2.704471 2.271837 0.018642 0.969164 -2.135464 0.290999 -4.387359 -0.781976 0.495486 4.435589 0.000000 0.000000 0.000000 2.848351 -0.291595 1.670556 0.687124 -0.151596 -2.323206 0.073142 -1.228140 2.973256 0.000000 0.000000 0.000000 6.046940 0.248519 -3.897635 -1.802588 0.793346 4.432587 -5.935831 2.417109 2.550597 8.371459 -3.766859 -14.177402 0.000000 0.000000 0.000000 -29.440626 -10.899481 2.162510 -23.832418 6.942738 -3.330580 5.656783 -28.757585 -0.513076 0.000000 0.000000 0.000000 21.298959 3.406063 1.166773 22.323245 -11.700061 -3.855511 16.490729 48.129677 9.218027 0.000000 0.000000 0.000000 
-0.006341 0.934317 0.006375 0.836794 1.033746 2.412304 2.039378 0.045848 1.192345 -2.093759 0.281941 -3.779908 -0.520236 0.866050 4.184686 0.000000 0.000000 0.000000 2.840786 -0.330609 1.988133 0.286701 -0.105299 -2.022678 0.157760 -0.845660 2.533741 0.000000 0.000000 0.000000 6.380014 0.226886 -3.519850 -1.965923 0.890264 4.317640 -6.053453 2.718370 2.666728 8.472374 -3.891514 -13.857294 0.000000 0.000000 0.000000 -29.289340 -10.538536 1.910147 -23.817115 7.354437 -3.399660 6.195479 -31.483838 -0.732270 0.000000 0.000000 0.000000 21.111481 3.295877 1.128691 22.129694 -11.691034 -3.825772 14.837980 48.006526 8.466219 0.000000 0.000000 0.000000 
-0.008217 0.933820 0.009386 1.034585 0.542087 2.102990 1.739338 0.028738 0.798691 -1.804699 0.230942 -1.996998 -0.123324 1.342730 3.541520 0.000000 0.000000 0.000000 2.864702 -0.410013 2.617827 -0.046889 -0.083385 -2.215966 0.291849 -0.396709 2.233801 0.000000 0.000000 0.000000 6.550011 0.194200 -3.057007 -2.039952 0.939055 4.348532 -5.979912 3.198524 2.648239 8.420833 -3.807357 -14.036295 0.000000 0.000000 0.000000 -29.101423 -10.597197 1.861546 -23.730471 7.684709 -3.422047 7.991638 -34.237777 -1.378223 0.000000 0.000000 0.000000 21.827285 3.197367 1.135707 21.780129 -11.607889 -3.766817 11.736502 47.397302 7.006884 0.000000 0.000000 0.000000 
-0.010063 0.933443 0.012515 1.048293 -0.169395 1.958462 1.486993 -0.004273 0.261802 -1.302392 0.147610 -0.228203 0.376371 2.069471 2.972494 0.000000 0.000000 0.000000 2.796178 -0.436770 2.859395 0.090422 -0.088686 -2.047162 0.527293 0.269668 2.000454 0.000000 0.000000 0.000000 6.947692 0.157070 -2.575676 -1.922595 0.891958 4.307723 -5.908053 3.635430 2.757230 8.234268 -3.714742 -13.891896 0.000000 0.000000 0.000000 -28.743072 -10.275488 1.651315 -24.152548 7.710397 -3.501997 10.069031 -36.542679 -2.189053 0.000000 0.000000 0.000000 22.112950 3.050443 1.075459 22.030331 -11.679623 -3.841264 8.642160 47.096095 5.645110 0.000000 0.000000 0.000000 
-0.011897 0.932853 0.015735 0.856309 -0.713703 1.509991 1.657911 -0.103468 -1.024702 -1.142536 0.045021 3.463082 0.916867 2.773676 2.040944 0.000000 0.000000 0.000000 2.883296 -0.544785 3.709862 0.369111 -0.123215 -2.341769 0.777093 0.895047 1.938050 0.000000 0.000000 0.000000 7.316803 0.114606 -2.003793 -1.869228 0.873083 4.713613 -5.405268 3.865920 2.831686 7.752017 -3.398250 -14.039970 0.000000 0.000000 0.000000 -28.431360 -10.096817 1.619459 -24.521285 7.481282 -3.546381 11.983445 -37.856702 -2.939359 0.000000 0.000000 0.000000 22.141431 3.249407 1.144783 22.900815 -11.231354 -3.957427 3.862271 46.033840 3.523384 0.000000 0.000000 0.000000 
-0.013579 0.931988 0.019280 0.747504 -1.374285 1.152281 1.691872 -0.247448 -2.933802 -0.984579 -0.083101 8.128900 1.488072 3.681601 1.380556 0.000000 0.000000 0.000000 2.888645 -0.659955 4.663001 0.572358 -0.160536 -2.961841 1.068569 1.632080 1.856695 0.000000 0.000000 0.000000 7.664273 0.029069 -1.076531 -1.429116 0.653339 4.742972 -5.390135 4.311483 2.998176 7.824656 -3.488095 -13.781550 0.000000 0.000000 0.000000 -28.452987 -10.377470 1.752074 -24.954710 7.170968 -3.563418 14.626773 -37.890475 -3.870423 0.000000 0.000000 0.000000 22.653166 3.324673 1.236108 23.792764 -10.829200 -4.106696 0.207712 45.025272 1.997151 0.000000 0.000000 0.000000 
-0.015037 0.930794 0.023883 0.695808 -1.403770 1.199812 1.545298 -0.470257 -5.781299 -1.305893 -0.139384 14.221305 2.693401 5.729391 0.052776 0.000000 0.000000 0.000000 3.236761 -0.756679 5.233458 0.189067 -0.151866 -3.518926 1.036697 1.714582 1.574681 0.000000 0.000000 0.000000 7.842005 0.000704 -0.830842 -1.560675 0.722813 4.940245 -4.507457 3.670288 3.019295 6.955302 -3.002742 -13.827556 0.000000 0.000000 0.000000 -28.806434 -10.210577 1.987200 -25.527782 6.280446 -3.574246 16.340148 -37.006854 -4.292019 0.000000 0.000000 0.000000 22.825671 3.668797 1.163182 25.113834 -10.514683 -4.264057 -2.825462 43.765936 0.702911 0.000000 0.000000 0.000000 
